<mxfile host="Electron" modified="2024-05-10T17:26:02.031Z" agent="Mozilla/5.0 (Macintosh; Intel Mac OS X 10_15_7) AppleWebKit/537.36 (KHTML, like Gecko) draw.io/24.2.5 Chrome/120.0.6099.109 Electron/28.1.0 Safari/537.36" etag="FOp51X8btzRkAQjYgxfo" version="24.2.5" type="device">
  <diagram name="Page-1" id="LYMdJRxrYTQsAfHXI3i9">
    <mxGraphModel dx="1042" dy="538" grid="1" gridSize="10" guides="1" tooltips="1" connect="1" arrows="1" fold="1" page="0" pageScale="1" pageWidth="827" pageHeight="1169" math="0" shadow="0">
      <root>
        <mxCell id="0" />
        <mxCell id="1" parent="0" />
        <mxCell id="r6eJtlauYgoKBoreaXhq-33" value="" style="rounded=1;whiteSpace=wrap;html=1;fillColor=#f5f5f5;fontColor=#333333;strokeColor=#666666;" vertex="1" parent="1">
          <mxGeometry x="-20" y="280" width="460" height="150" as="geometry" />
        </mxCell>
        <mxCell id="r6eJtlauYgoKBoreaXhq-48" value="" style="endArrow=classic;html=1;rounded=0;fontSize=12;startSize=8;endSize=8;curved=1;entryX=0.806;entryY=0.033;entryDx=0;entryDy=0;entryPerimeter=0;" edge="1" parent="1" target="r6eJtlauYgoKBoreaXhq-39">
          <mxGeometry width="50" height="50" relative="1" as="geometry">
            <mxPoint x="259" y="370" as="sourcePoint" />
            <mxPoint x="220" y="410" as="targetPoint" />
          </mxGeometry>
        </mxCell>
        <mxCell id="r6eJtlauYgoKBoreaXhq-22" value="" style="endArrow=classic;html=1;rounded=0;fontSize=12;startSize=8;endSize=8;curved=1;entryX=0.5;entryY=0;entryDx=0;entryDy=0;" edge="1" parent="1" target="r6eJtlauYgoKBoreaXhq-35">
          <mxGeometry width="50" height="50" relative="1" as="geometry">
            <mxPoint x="136" y="200" as="sourcePoint" />
            <mxPoint x="40" y="300" as="targetPoint" />
          </mxGeometry>
        </mxCell>
        <mxCell id="r6eJtlauYgoKBoreaXhq-1" value="" style="rounded=0;whiteSpace=wrap;html=1;dashed=1;fillColor=none;" vertex="1" parent="1">
          <mxGeometry x="44.75" y="70" width="330.5" height="170" as="geometry" />
        </mxCell>
        <mxCell id="r6eJtlauYgoKBoreaXhq-2" value="Host" style="text;html=1;align=center;verticalAlign=middle;whiteSpace=wrap;rounded=0;fontSize=14;" vertex="1" parent="1">
          <mxGeometry x="50" y="80" width="60" height="30" as="geometry" />
        </mxCell>
        <mxCell id="r6eJtlauYgoKBoreaXhq-3" value="Application" style="rounded=0;whiteSpace=wrap;html=1;fillColor=#dae8fc;strokeColor=#6c8ebf;" vertex="1" parent="1">
          <mxGeometry x="100" y="122" width="220" height="42" as="geometry" />
        </mxCell>
        <mxCell id="r6eJtlauYgoKBoreaXhq-14" value="Automatic and manual instrumentation" style="rounded=0;whiteSpace=wrap;html=1;fillColor=#ffe6cc;strokeColor=#d79b00;" vertex="1" parent="1">
          <mxGeometry x="100" y="164" width="220" height="42" as="geometry" />
        </mxCell>
        <mxCell id="r6eJtlauYgoKBoreaXhq-15" style="edgeStyle=none;curved=1;rounded=0;orthogonalLoop=1;jettySize=auto;html=1;exitX=0.5;exitY=0;exitDx=0;exitDy=0;fontSize=12;startSize=8;endSize=8;" edge="1" parent="1" source="r6eJtlauYgoKBoreaXhq-2" target="r6eJtlauYgoKBoreaXhq-2">
          <mxGeometry relative="1" as="geometry" />
        </mxCell>
        <mxCell id="r6eJtlauYgoKBoreaXhq-23" value="" style="endArrow=classic;html=1;rounded=0;fontSize=12;startSize=8;endSize=8;curved=1;exitX=0.5;exitY=1;exitDx=0;exitDy=0;entryX=0.5;entryY=0;entryDx=0;entryDy=0;" edge="1" parent="1" target="r6eJtlauYgoKBoreaXhq-36">
          <mxGeometry width="50" height="50" relative="1" as="geometry">
            <mxPoint x="210" y="206" as="sourcePoint" />
            <mxPoint x="210" y="300" as="targetPoint" />
          </mxGeometry>
        </mxCell>
        <mxCell id="r6eJtlauYgoKBoreaXhq-24" value="" style="endArrow=classic;html=1;rounded=0;fontSize=12;startSize=8;endSize=8;curved=1;exitX=0.5;exitY=1;exitDx=0;exitDy=0;entryX=0.5;entryY=0;entryDx=0;entryDy=0;" edge="1" parent="1" target="r6eJtlauYgoKBoreaXhq-37">
          <mxGeometry width="50" height="50" relative="1" as="geometry">
            <mxPoint x="284.5" y="206" as="sourcePoint" />
            <mxPoint x="405" y="300" as="targetPoint" />
          </mxGeometry>
        </mxCell>
        <mxCell id="r6eJtlauYgoKBoreaXhq-28" value="" style="rounded=0;whiteSpace=wrap;html=1;dashed=1;fillColor=none;" vertex="1" parent="1">
          <mxGeometry x="-10" y="470" width="440" height="160" as="geometry" />
        </mxCell>
        <mxCell id="r6eJtlauYgoKBoreaXhq-29" value="Backend(s)" style="text;html=1;align=left;verticalAlign=middle;whiteSpace=wrap;rounded=0;fontSize=14;" vertex="1" parent="1">
          <mxGeometry y="480" width="60" height="30" as="geometry" />
        </mxCell>
        <mxCell id="r6eJtlauYgoKBoreaXhq-30" value="Logs" style="rounded=0;whiteSpace=wrap;html=1;fillColor=#ffe6cc;strokeColor=#d79b00;" vertex="1" parent="1">
          <mxGeometry x="39" y="550" width="71" height="42" as="geometry" />
        </mxCell>
        <mxCell id="r6eJtlauYgoKBoreaXhq-31" value="Traces" style="rounded=0;whiteSpace=wrap;html=1;fillColor=#d5e8d4;strokeColor=#82b366;" vertex="1" parent="1">
          <mxGeometry x="171" y="550" width="78" height="42" as="geometry" />
        </mxCell>
        <mxCell id="r6eJtlauYgoKBoreaXhq-32" value="Metrics" style="rounded=0;whiteSpace=wrap;html=1;fillColor=#f8cecc;strokeColor=#b85450;" vertex="1" parent="1">
          <mxGeometry x="310" y="550" width="71" height="42" as="geometry" />
        </mxCell>
        <mxCell id="r6eJtlauYgoKBoreaXhq-34" value="OpenTelemetry&lt;div style=&quot;font-size: 14px;&quot;&gt;Collector&lt;/div&gt;" style="text;html=1;align=left;verticalAlign=middle;whiteSpace=wrap;rounded=0;fontSize=14;" vertex="1" parent="1">
          <mxGeometry x="-10" y="292" width="60" height="30" as="geometry" />
        </mxCell>
        <mxCell id="r6eJtlauYgoKBoreaXhq-35" value="Logs" style="rounded=0;whiteSpace=wrap;html=1;fillColor=#ffe6cc;strokeColor=#d79b00;" vertex="1" parent="1">
          <mxGeometry x="100" y="280" width="71" height="42" as="geometry" />
        </mxCell>
        <mxCell id="r6eJtlauYgoKBoreaXhq-36" value="Traces" style="rounded=0;whiteSpace=wrap;html=1;fillColor=#d5e8d4;strokeColor=#82b366;" vertex="1" parent="1">
          <mxGeometry x="171" y="280" width="78" height="42" as="geometry" />
        </mxCell>
        <mxCell id="r6eJtlauYgoKBoreaXhq-37" value="Metrics" style="rounded=0;whiteSpace=wrap;html=1;fillColor=#f8cecc;strokeColor=#b85450;" vertex="1" parent="1">
          <mxGeometry x="249" y="280" width="71" height="42" as="geometry" />
        </mxCell>
        <mxCell id="r6eJtlauYgoKBoreaXhq-38" value="Processing pipeline" style="rounded=1;whiteSpace=wrap;html=1;fillColor=#e1d5e7;strokeColor=#9673a6;" vertex="1" parent="1">
          <mxGeometry x="75" y="340" width="270" height="38" as="geometry" />
        </mxCell>
        <mxCell id="r6eJtlauYgoKBoreaXhq-39" value="Exporter" style="rounded=0;whiteSpace=wrap;html=1;fillColor=#b0e3e6;strokeColor=#0e8088;" vertex="1" parent="1">
          <mxGeometry x="130" y="400" width="160" height="30" as="geometry" />
        </mxCell>
        <mxCell id="r6eJtlauYgoKBoreaXhq-40" value="" style="endArrow=classic;html=1;rounded=0;fontSize=12;startSize=8;endSize=8;curved=0;exitX=0.5;exitY=1;exitDx=0;exitDy=0;entryX=0.5;entryY=0;entryDx=0;entryDy=0;" edge="1" parent="1" source="r6eJtlauYgoKBoreaXhq-39" target="r6eJtlauYgoKBoreaXhq-32">
          <mxGeometry width="50" height="50" relative="1" as="geometry">
            <mxPoint x="160" y="530" as="sourcePoint" />
            <mxPoint x="210" y="480" as="targetPoint" />
            <Array as="points">
              <mxPoint x="210" y="520" />
              <mxPoint x="346" y="520" />
            </Array>
          </mxGeometry>
        </mxCell>
        <mxCell id="r6eJtlauYgoKBoreaXhq-51" value="correlated&amp;nbsp;&lt;div&gt;telemetry&lt;/div&gt;" style="edgeLabel;html=1;align=center;verticalAlign=middle;resizable=0;points=[];fontSize=12;" vertex="1" connectable="0" parent="r6eJtlauYgoKBoreaXhq-40">
          <mxGeometry x="-0.5781" relative="1" as="geometry">
            <mxPoint y="-14" as="offset" />
          </mxGeometry>
        </mxCell>
        <mxCell id="r6eJtlauYgoKBoreaXhq-41" value="" style="endArrow=classic;html=1;rounded=0;fontSize=12;startSize=8;endSize=8;curved=1;entryX=0.5;entryY=0;entryDx=0;entryDy=0;" edge="1" parent="1" target="r6eJtlauYgoKBoreaXhq-31">
          <mxGeometry width="50" height="50" relative="1" as="geometry">
            <mxPoint x="210" y="520" as="sourcePoint" />
            <mxPoint x="210" y="470" as="targetPoint" />
          </mxGeometry>
        </mxCell>
        <mxCell id="r6eJtlauYgoKBoreaXhq-42" value="" style="endArrow=classic;html=1;rounded=0;fontSize=12;startSize=8;endSize=8;curved=0;entryX=0.5;entryY=0;entryDx=0;entryDy=0;" edge="1" parent="1" target="r6eJtlauYgoKBoreaXhq-30">
          <mxGeometry width="50" height="50" relative="1" as="geometry">
            <mxPoint x="210" y="520" as="sourcePoint" />
            <mxPoint x="210" y="470" as="targetPoint" />
            <Array as="points">
              <mxPoint x="75" y="520" />
            </Array>
          </mxGeometry>
        </mxCell>
        <mxCell id="r6eJtlauYgoKBoreaXhq-43" style="edgeStyle=none;curved=1;rounded=0;orthogonalLoop=1;jettySize=auto;html=1;fontSize=12;startSize=8;endSize=8;" edge="1" parent="1" source="r6eJtlauYgoKBoreaXhq-35">
          <mxGeometry relative="1" as="geometry">
            <mxPoint x="136" y="340" as="targetPoint" />
          </mxGeometry>
        </mxCell>
        <mxCell id="r6eJtlauYgoKBoreaXhq-44" style="edgeStyle=none;curved=1;rounded=0;orthogonalLoop=1;jettySize=auto;html=1;fontSize=12;startSize=8;endSize=8;exitX=0.5;exitY=1;exitDx=0;exitDy=0;entryX=0.5;entryY=0;entryDx=0;entryDy=0;" edge="1" parent="1" source="r6eJtlauYgoKBoreaXhq-36" target="r6eJtlauYgoKBoreaXhq-38">
          <mxGeometry relative="1" as="geometry">
            <mxPoint x="146" y="332" as="sourcePoint" />
            <mxPoint x="146" y="350" as="targetPoint" />
          </mxGeometry>
        </mxCell>
        <mxCell id="r6eJtlauYgoKBoreaXhq-45" style="edgeStyle=none;curved=1;rounded=0;orthogonalLoop=1;jettySize=auto;html=1;fontSize=12;startSize=8;endSize=8;exitX=0.5;exitY=1;exitDx=0;exitDy=0;entryX=0.778;entryY=0;entryDx=0;entryDy=0;entryPerimeter=0;" edge="1" parent="1" source="r6eJtlauYgoKBoreaXhq-37" target="r6eJtlauYgoKBoreaXhq-38">
          <mxGeometry relative="1" as="geometry">
            <mxPoint x="220" y="332" as="sourcePoint" />
            <mxPoint x="220" y="350" as="targetPoint" />
          </mxGeometry>
        </mxCell>
        <mxCell id="r6eJtlauYgoKBoreaXhq-46" value="" style="endArrow=classic;html=1;rounded=0;fontSize=12;startSize=8;endSize=8;curved=1;exitX=0.307;exitY=1.026;exitDx=0;exitDy=0;exitPerimeter=0;" edge="1" parent="1" source="r6eJtlauYgoKBoreaXhq-38">
          <mxGeometry width="50" height="50" relative="1" as="geometry">
            <mxPoint x="190" y="430" as="sourcePoint" />
            <mxPoint x="158" y="400" as="targetPoint" />
          </mxGeometry>
        </mxCell>
        <mxCell id="r6eJtlauYgoKBoreaXhq-47" value="" style="endArrow=classic;html=1;rounded=0;fontSize=12;startSize=8;endSize=8;curved=1;exitX=0.5;exitY=1;exitDx=0;exitDy=0;entryX=0.5;entryY=0;entryDx=0;entryDy=0;" edge="1" parent="1" source="r6eJtlauYgoKBoreaXhq-38" target="r6eJtlauYgoKBoreaXhq-39">
          <mxGeometry width="50" height="50" relative="1" as="geometry">
            <mxPoint x="168" y="389" as="sourcePoint" />
            <mxPoint x="168" y="410" as="targetPoint" />
          </mxGeometry>
        </mxCell>
        <mxCell id="r6eJtlauYgoKBoreaXhq-49" value="" style="endArrow=classic;startArrow=classic;html=1;rounded=0;fontSize=12;startSize=8;endSize=8;curved=1;exitX=1;exitY=0.5;exitDx=0;exitDy=0;entryX=0;entryY=0.5;entryDx=0;entryDy=0;dashed=1;" edge="1" parent="1" source="r6eJtlauYgoKBoreaXhq-30" target="r6eJtlauYgoKBoreaXhq-31">
          <mxGeometry width="50" height="50" relative="1" as="geometry">
            <mxPoint x="150" y="540" as="sourcePoint" />
            <mxPoint x="200" y="490" as="targetPoint" />
            <Array as="points">
              <mxPoint x="140" y="571" />
            </Array>
          </mxGeometry>
        </mxCell>
        <mxCell id="r6eJtlauYgoKBoreaXhq-50" value="" style="endArrow=classic;startArrow=classic;html=1;rounded=0;fontSize=12;startSize=8;endSize=8;curved=1;exitX=0;exitY=0.5;exitDx=0;exitDy=0;entryX=1;entryY=0.5;entryDx=0;entryDy=0;dashed=1;" edge="1" parent="1" source="r6eJtlauYgoKBoreaXhq-32" target="r6eJtlauYgoKBoreaXhq-31">
          <mxGeometry width="50" height="50" relative="1" as="geometry">
            <mxPoint x="120" y="581" as="sourcePoint" />
            <mxPoint x="181" y="581" as="targetPoint" />
          </mxGeometry>
        </mxCell>
      </root>
    </mxGraphModel>
  </diagram>
</mxfile>
